#!OML:ASF F:\VICON\USERDATA\INSTALL\rory3\rory3.ASF
:FULLY-SPECIFIED
:DEGREES
183
root 14.6184 17.5561 2.1129 -137.969 -80.613 139.708
lowerback 10.4451 1.63503 -0.136635
upperback -0.428687 2.09082 -0.846432
thorax -6.2872 1.00938 -1.13774
lowerneck -22.6089 -1.47115 -10.7531
upperneck 30.4595 -0.342342 5.68099
head 14.2671 -0.776714 4.05951
rclavicle 6.11263e-015 -1.19271e-014
rhumerus -37.3921 -20.5354 -74.577
rradius 30.9242
rwrist 9.99287
rhand -13.0065 9.71523
rfingers 7.12502
rthumb 13.087 -19.8542
lclavicle 6.11263e-015 -1.19271e-014
lhumerus -32.0963 11.7981 76.0835
lradius 34.2025
lwrist -4.2443
lhand -22.3409 24.3809
lfingers 7.12502
lthumb 4.07959 54.3216
rfemur -9.67974 -3.98792 19.9354
rtibia 38.6634
rfoot -26.6222 -4.73157
rtoes 11.2144
lfemur -9.73258 4.45428 -24.7979
ltibia 30.0923
lfoot -22.2037 -8.44542
ltoes -21.359
184
root 14.6141 17.5534 2.14022 -138.459 -80.9731 140.223
lowerback 10.5581 1.47146 0.00565001
upperback -0.474227 1.90761 -0.600475
thorax -6.40596 0.918834 -0.935819
lowerneck -22.6778 -1.50915 -10.9275
upperneck 30.4344 -0.298134 5.62663
head 14.2686 -0.784408 4.07473
rclavicle 2.98177e-016 1.03368e-014
rhumerus -37.2 -19.9482 -74.4329
rradius 30.9534
rwrist 9.59821
rhand -13.056 9.72837
rfingers 7.12502
rthumb 13.0392 -19.8441
lclavicle 2.98177e-016 1.03368e-014
lhumerus -32.2996 12.173 76.2852
lradius 34.0385
lwrist -4.39519
lhand -22.3482 24.224
lfingers 7.12502
lthumb 4.07254 54.1648
rfemur -9.33207 -3.7929 20.19
rtibia 38.0995
rfoot -26.8332 -4.87746
rtoes 11.569
lfemur -10.1395 3.40679 -24.4128
ltibia 30.9542
lfoot -22.3208 -8.79738
ltoes -20.8892
185
root 14.6106 17.5577 2.16731 -138.898 -81.4105 140.66
lowerback 10.7252 1.31523 0.261284
upperback -0.514898 1.74438 -0.420056
thorax -6.54386 0.832664 -0.869947
lowerneck -22.74 -1.51788 -10.8667
upperneck 30.473 -0.309637 5.57026
head 14.3004 -0.791684 4.04099
rclavicle 8.84592e-015 5.56597e-015
rhumerus -37.1226 -19.68 -74.2853
rradius 31.0583
rwrist 9.37763
rhand -13.1681 9.67106
rfingers 7.12502
rthumb 12.9312 -19.9083
lclavicle 8.84592e-015 5.56597e-015
lhumerus -32.372 12.2272 76.5564
lradius 33.858
lwrist -4.44604
lhand -22.3777 24.2344
lfingers 7.12502
lthumb 4.04407 54.1758
rfemur -8.90985 -3.74958 20.4459
rtibia 37.5546
rfoot -27.0097 -4.7067
rtoes 12.1632
lfemur -10.5743 2.88552 -23.9072
ltibia 31.8867
lfoot -22.6056 -9.57011
ltoes -21.1513
186
root 14.6057 17.5666 2.19594 -139.264 -81.7908 141.026
lowerback 10.8941 1.21585 0.494027
upperback -0.547356 1.65093 -0.297717
thorax -6.67241 0.780095 -0.862376
lowerneck -22.8571 -1.49939 -10.5673
upperneck 30.559 -0.322037 5.37369
head 14.3642 -0.792483 3.91028
rclavicle -1.30204e-014 -5.56597e-015
rhumerus -37.1473 -19.4272 -74.1555
rradius 31.2647
rwrist 8.9417
rhand -13.3108 9.57418
rfingers 7.12502
rthumb 12.7936 -20.0138
lclavicle -1.30204e-014 -5.56597e-015
lhumerus -32.3461 12.0558 76.9016
lradius 33.6089
lwrist -4.58331
lhand -22.667 24.3983
lfingers 7.12502
lthumb 3.76465 54.3448
rfemur -8.57533 -3.82656 20.6753
rtibia 37.0561
rfoot -26.9582 -4.82313
rtoes 11.8768
lfemur -11.1109 2.79593 -23.4217
ltibia 32.8675
lfoot -22.8666 -10.6856
ltoes -22.2771
187
root 14.5968 17.5758 2.22436 -140.327 -82.0864 142.109
lowerback 10.9718 1.17582 0.684278
upperback -0.559404 1.63564 -0.111181
thorax -6.72971 0.768851 -0.773069
lowerneck -22.8937 -1.56208 -10.4884
upperneck 30.5107 -0.379636 5.20732
head 14.358 -0.828638 3.81574
rclavicle -1.6201e-014 -6.36111e-015
rhumerus -37.1127 -19.2567 -73.8653
rradius 31.3577
rwrist 8.63864
rhand -13.5963 9.47835
rfingers 7.12502
rthumb 12.5183 -20.1267
lclavicle -1.6201e-014 -6.36111e-015
lhumerus -32.2915 11.9373 77.3243
lradius 33.3422
lwrist -4.72401
lhand -22.7295 24.5106
lfingers 7.12502
lthumb 3.70431 54.4581
rfemur -8.35017 -3.90246 20.9329
rtibia 36.6354
rfoot -26.8676 -5.07076
rtoes 11.6291
lfemur -11.6794 2.65294 -22.913
ltibia 33.8432
lfoot -23.0057 -11.5765
ltoes -24.2278
188
root 14.589 17.5791 2.25163 -142.084 -82.2755 143.839
lowerback 11.0819 1.15284 0.864768
upperback -0.532159 1.63947 0.0482784
thorax -6.76288 0.766617 -0.709895
lowerneck -22.937 -1.61281 -10.3723
upperneck 30.4372 -0.439805 5.06229
head 14.3415 -0.857041 3.72264
rclavicle 3.77691e-015 1.03368e-014
rhumerus -36.9997 -19.377 -73.5499
rradius 31.3318
rwrist 8.67496
rhand -13.9267 9.34078
rfingers 7.12502
rthumb 12.1998 -20.2834
lclavicle 3.77691e-015 1.03368e-014
lhumerus -32.1335 11.9636 77.6278
lradius 33.0036
lwrist -4.99694
lhand -22.5829 24.217
lfingers 7.12502
lthumb 3.84593 54.162
rfemur -8.13428 -4.14465 21.1137
rtibia 36.2923
rfoot -26.7771 -4.82406
rtoes 11.8514
lfemur -12.1783 2.7835 -22.4025
ltibia 34.7957
lfoot -23.3784 -12.3559
ltoes -27.449
189
root 14.5848 17.581 2.28181 -144.34 -82.4655 145.988
lowerback 11.328 1.12136 1.08411
upperback -0.483445 1.64002 0.235476
thorax -6.85013 0.760891 -0.641614
lowerneck -22.9749 -1.68426 -10.4368
upperneck 30.4052 -0.527378 5.10617
head 14.3452 -0.893757 3.73531
rclavicle 3.99557e-014 -7.15625e-015
rhumerus -36.8602 -19.6661 -73.1473
rradius 31.2865
rwrist 8.73728
rhand -14.0793 9.29228
rfingers 7.12502
rthumb 12.0526 -20.3406
lclavicle 3.99557e-014 -7.15625e-015
lhumerus -31.9966 11.8735 77.9663
lradius 32.673
lwrist -5.30812
lhand -22.2644 23.8892
lfingers 7.12502
lthumb 4.15348 53.8284
rfemur -7.84582 -4.23052 21.3344
rtibia 35.9909
rfoot -26.6475 -4.57343
rtoes 12.0552
lfemur -12.5997 2.9731 -21.7941
ltibia 35.7167
lfoot -23.4235 -13.671
ltoes -28.2959
